<svg xmlns="http://www.w3.org/2000/svg" data-name="Layer 1" viewBox="0 0 64 80" x="0px" y="0px">
    <path d="M61,46H57v5l-3-2-3,2V46H47a1,1,0,0,0-1,1V61a1,1,0,0,0,1,1H61a1,1,0,0,0,1-1V47A1,1,0,0,0,61,46Z" fill="#FFDB6E"/>
    <rect x="21" y="12" width="2" height="2" fill="#FFDB6E"/>
    <rect x="41" y="12" width="2" height="2" fill="#FFDB6E"/>
    <rect x="23.93" y="4.93" width="2" height="2" transform="translate(3.11 19.36) rotate(-45)" fill="#FFDB6E"/>
    <rect x="38.07" y="19.07" width="2" height="2" transform="translate(-2.75 33.51) rotate(-45)" fill="#FFDB6E"/>
    <rect x="31" y="2" width="2" height="2" fill="#FFDB6E"/>
    <path d="M11,62a9,9,0,1,0-9-9A9,9,0,0,0,11,62Zm1-3H10V57h2ZM11,47a3.5,3.5,0,0,1,1,6.85V55.5H10V53a1,1,0,0,1,1-1,1.5,1.5,0,1,0-1.5-1.5h-2A3.5,3.5,0,0,1,11,47Z" fill="#FFDB6E"/>
    <path d="M14.65,21l.94-6.6L9,15.36l2.14,2.14A25.71,25.71,0,0,0,6,33a26.12,26.12,0,0,0,.75,6.24l1.95-.48a24,24,0,0,1,3.87-19.83" fill="#FFDB6E"/>
    <path d="M52.87,35.12l3.44,5.71,4.52-4.9-3-.3C58,34.76,58,33.88,58,33a25.94,25.94,0,0,0-9.36-20l-1.28,1.53A24,24,0,0,1,56,33a21.67,21.67,0,0,1-.13,2.42" fill="#FFDB6E"/>
    <path d="M28.79,61.83l.49-3A24.66,24.66,0,0,0,32,59a25.69,25.69,0,0,0,9.36-1.74l-.72-1.86a24.06,24.06,0,0,1-11,1.45l.48-2.91L24.18,57" fill="#FFDB6E"/>
    <path d="M35,23V22H29v1a3,3,0,0,0,6,0Z" fill="#FFDB6E"/>
    <path d="M25,13a7,7,0,0,0,4,6.32V20.5h6V19.32A7,7,0,1,0,25,13Z" fill="#FFDB6E"/>
    <rect x="23.93" y="19.07" width="2" height="2" transform="translate(-6.89 23.51) rotate(-45)" fill="#FFDB6E"/>
    <rect x="38.07" y="4.93" width="2" height="2" transform="translate(7.25 29.36) rotate(-45)" fill="#FFDB6E"/>
</svg>