<svg xmlns="http://www.w3.org/2000/svg" data-name="Layer 1" viewBox="0 0 64 80" x="0px" y="0px">
    <title>x</title>
    <path d="M24.44,41.88l-.16,0-.11.06-.15.08-.09.07-.14.11-.08.09s-.07.08-.1.13a1.19,1.19,0,0,0-.09.15.9.9,0,0,0-.05.09v0a.55.55,0,0,0-.06.18l0,.1a.49.49,0,0,1,0,.12,1.1,1.1,0,0,0,0,.18h0s0,.07,0,.1,0,.12,0,.18a.83.83,0,0,0,0,.15.65.65,0,0,0,0,.13s.05.09.07.14l.06.12.09.12.1.11.11.1.11.08a1,1,0,0,0,.17.1l.07,0a6.1,6.1,0,0,1,.25,11.08H19.82a6.36,6.36,0,0,1-6.39-6.31V36.34l-3-.74V49.46a9.36,9.36,0,0,0,9.39,9.31H54.89a8.49,8.49,0,0,0,6-2.48,8.37,8.37,0,0,0,2.51-6,8.48,8.48,0,0,0-4.58-7.51V11.44a6.25,6.25,0,0,0-6.27-6.22H7a6.4,6.4,0,0,0-6.39,6.4V16.5A1.5,1.5,0,0,0,2.07,18h8.36v5l3,.74V8.22H52.58a3.25,3.25,0,0,1,3.27,3.22V41.88c-.32,0,.36-.06,0-.06M10.43,15H3.57V11.62A3.4,3.4,0,0,1,7,8.22h3.47ZM58.81,54.17a5.52,5.52,0,0,1-3.91,1.61H29.05a9,9,0,0,0,0-11H54.89a5.51,5.51,0,0,1,5.54,5.48A5.4,5.4,0,0,1,58.81,54.17Z" fill="#FFDB6E"/>
    <rect x="25.46" y="16.1" width="4.02" height="3" fill="#FFDB6E"/>
    <rect x="32.03" y="16.1" width="12.51" height="3" fill="#FFDB6E"/>
    <rect x="25.46" y="22.82" width="4.02" height="3" fill="#FFDB6E"/>
    <rect x="32.03" y="22.82" width="12.51" height="3" fill="#FFDB6E"/>
    <path d="M29.29,30.17l0,0a1.63,1.63,0,0,0-.42-.31l-.08,0a.43.43,0,0,0-.12,0L4.87,22.2a1.48,1.48,0,0,0-1.15.1,1.5,1.5,0,0,0-.74.88L1,29.55a1.52,1.52,0,0,0,1,1.88L25.75,39a1.59,1.59,0,0,0,.43.06h0l.33,0L33,37.49a1.5,1.5,0,0,0,1.09-1A1.48,1.48,0,0,0,33.75,35ZM6.6,29.75,4.3,29l1.1-3.51,2.26.73ZM26.26,36,9.46,30.66l1.06-3.52L27.35,32.5l2.46,2.66Z" fill="#FFDB6E"/>
</svg>